<svg xmlns="http://www.w3.org/2000/svg">
  <symbol id="add-icon" viewBox="0 0 15 14">
    <path d="M6.24854 8H1.24854C0.965202 8 0.727702 7.90417 0.536035 7.7125C0.344368 7.52083 0.248535 7.28333 0.248535 7C0.248535 6.71667 0.344368 6.47917 0.536035 6.2875C0.727702 6.09583 0.965202 6 1.24854 6H6.24854V1C6.24854 0.716667 6.34437 0.479167 6.53604 0.2875C6.7277 0.0958333 6.9652 0 7.24854 0C7.53187 0 7.76937 0.0958333 7.96104 0.2875C8.1527 0.479167 8.24854 0.716667 8.24854 1V6H13.2485C13.5319 6 13.7694 6.09583 13.961 6.2875C14.1527 6.47917 14.2485 6.71667 14.2485 7C14.2485 7.28333 14.1527 7.52083 13.961 7.7125C13.7694 7.90417 13.5319 8 13.2485 8H8.24854V13C8.24854 13.2833 8.1527 13.5208 7.96104 13.7125C7.76937 13.9042 7.53187 14 7.24854 14C6.9652 14 6.7277 13.9042 6.53604 13.7125C6.34437 13.5208 6.24854 13.2833 6.24854 13V8Z" fill="#2A3647"/>
  </symbol>

  <symbol id="arrow-icon" viewBox="0 0 8 5">
    <path d="M3.29998 4.3L0.699975 1.7C0.383309 1.38333 0.312475 1.02083 0.487475 0.6125C0.662475 0.204167 0.974975 0 1.42498 0H6.57498C7.02498 0 7.33747 0.204167 7.51248 0.6125C7.68748 1.02083 7.61664 1.38333 7.29997 1.7L4.69998 4.3C4.59998 4.4 4.49164 4.475 4.37498 4.525C4.25831 4.575 4.13331 4.6 3.99998 4.6C3.86664 4.6 3.74164 4.575 3.62498 4.525C3.50831 4.475 3.39998 4.4 3.29998 4.3Z" fill="#2A3647"/>
  </symbol>

  <symbol id="lowprio-icon" viewBox="0 0 21 16">
    <path d="M10.2485 9.50589C10.0139 9.5063 9.7854 9.43145 9.59655 9.29238L0.693448 2.72264C0.57761 2.63708 0.47977 2.52957 0.405515 2.40623C0.33126 2.28289 0.282043 2.14614 0.260675 2.00379C0.217521 1.71631 0.290421 1.42347 0.463337 1.1897C0.636253 0.955928 0.895022 0.800371 1.18272 0.757248C1.47041 0.714126 1.76347 0.786972 1.99741 0.95976L10.2485 7.04224L18.4997 0.95976C18.6155 0.874204 18.7471 0.812285 18.8869 0.777538C19.0266 0.742791 19.1719 0.735896 19.3144 0.757248C19.4568 0.7786 19.5937 0.82778 19.7171 0.901981C19.8405 0.976181 19.9481 1.07395 20.0337 1.1897C20.1194 1.30545 20.1813 1.43692 20.2161 1.57661C20.2509 1.71629 20.2578 1.86145 20.2364 2.00379C20.2150 2.14614 20.1658 2.28289 20.0916 2.40623C20.0173 2.52957 19.9195 2.63708 19.8036 2.72264L10.9005 9.29238C10.7117 9.43145 10.4831 9.5063 10.2485 9.50589Z"/>
    <path d="M10.2485 15.2544C10.0139 15.2548 9.7854 15.18 9.59655 15.0409L0.693448 8.47117C0.459502 8.29839 0.30383 8.03981 0.260675 7.75233C0.217521 7.46485 0.290421 7.17201 0.463337 6.93824C0.636253 6.70446 0.895021 6.54891 1.18272 6.50578C1.47041 6.46266 1.76347 6.53551 1.99741 6.7083L10.2485 12.7908L18.4997 6.7083C18.7336 6.53551 19.0267 6.46266 19.3144 6.50578C19.6020 6.54891 19.8608 6.70446 20.0337 6.93824C20.2066 7.17201 20.2795 7.46485 20.2364 7.75233C20.1932 8.03981 20.0376 8.29839 19.8036 8.47117L10.9005 15.0409C10.7117 15.18 10.4831 15.2548 10.2485 15.2544Z"/>
  </symbol>

  <symbol id="mediumprio-icon" viewBox="0 0 21 8">
    <path d="M19.1526 7.72528H1.34443C1.05378 7.72528 0.775033 7.60898 0.569514 7.40197C0.363995 7.19495 0.248535 6.91419 0.248535 6.62143C0.248535 6.32867 0.363995 6.0479 0.569514 5.84089C0.775033 5.63388 1.05378 5.51758 1.34443 5.51758H19.1526C19.4433 5.51758 19.722 5.63388 19.9276 5.84089C20.1331 6.0479 20.2485 6.32867 20.2485 6.62143C20.2485 6.91419 20.1331 7.19495 19.9276 7.40197C19.722 7.60898 19.4433 7.72528 19.1526 7.72528Z"/>
    <path d="M19.1526 2.48211H1.34443C1.05378 2.48211 0.775033 2.36581 0.569514 2.1588C0.363995 1.95179 0.248535 1.67102 0.248535 1.37826C0.248535 1.0855 0.363995 0.804736 0.569514 0.597724C0.775033 0.390712 1.05378 0.274414 1.34443 0.274414H19.1526 0.274414C19.4433 0.274414 19.722 0.390712 19.9276 0.597724C20.1331 0.804736 20.2485 1.0855 20.2485 1.37826C20.2485 1.67102 20.1331 1.95179 19.9276 2.1588C19.722 2.36581 19.4433 2.48211 19.1526 2.48211Z"/>
  </symbol>

  <symbol id="urgentprio-icon" viewBox="0 0 21 16">
    <g clip-path="url(#clip0_101429_5525)">
    <path d="M19.6528 15.2547C19.4182 15.2551 19.1896 15.1803 19.0007 15.0412L10.7487 8.958L2.49663 15.0412C2.38078 15.1267 2.24919 15.1887 2.10939 15.2234C1.96959 15.2582 1.82431 15.2651 1.68184 15.2437C1.53937 15.2223 1.40251 15.1732 1.27906 15.099C1.15562 15.0247 1.04801 14.927 0.96238 14.8112C0.876751 14.6954 0.814779 14.5639 0.780002 14.4243C0.745226 14.2846 0.738325 14.1394 0.759696 13.997C0.802855 13.7095 0.958545 13.4509 1.19252 13.2781L10.0966 6.70761C10.2853 6.56802 10.5139 6.49268 10.7487 6.49268C10.9835 6.49268 11.212 6.56802 11.4007 6.70761L20.3048 13.2781C20.4908 13.415 20.6286 13.6071 20.6988 13.827C20.7689 14.0469 20.7678 14.2833 20.6955 14.5025C20.6232 14.7216 20.4834 14.9124 20.2962 15.0475C20.1089 15.1826 19.8837 15.2551 19.6528 15.2547Z"/>
    <path d="M19.6528 9.50568C19.4182 9.50609 19.1896 9.43124 19.0007 9.29214L10.7487 3.20898L2.49663 9.29214C2.26266 9.46495 1.96957 9.5378 1.68184 9.49468C1.39412 9.45155 1.13532 9.29597 0.962385 9.06218C0.789449 8.82838 0.716541 8.53551 0.7597 8.24799C0.802859 7.96048 0.95855 7.70187 1.19252 7.52906L10.0966 0.958588C10.2853 0.818997 10.5139 0.743652 10.7487 0.743652C10.9835 0.743652 11.212 0.818997 11.4007 0.958588L20.3048 7.52906C20.4908 7.66598 20.6286 7.85809 20.6988 8.07797C20.769 8.29785 20.7678 8.53426 20.6955 8.75344C20.6232 8.97262 20.4834 9.16338 20.2962 9.29847C20.1089 9.43356 19.8837 9.50608 19.6528 9.50568Z"/>
    </g>
    <defs>
    <clipPath id="clip0_101429_5525">
    <rect width="20" height="14.5098" fill="white" transform="translate(0.748535 0.745117)"/>
    </clipPath>
    </defs>
  </symbol>

  <symbol id="star-icon" viewBox="0 0 16 16">
    <path d="M8 0a1 1 0 0 1 1 1v5.268l4.562-2.634a1 1 0 1 1 1 1.732L10 8l4.562 2.634a1 1 0 1 1-1 1.732L9 9.732V15a1 1 0 1 1-2 0V9.732l-4.562 2.634a1 1 0 1 1-1-1.732L6 8 1.438 5.366a1 1 0 0 1 1-1.732L7 6.268V1a1 1 0 0 1 1-1z"/>
  </symbol>

  <symbol id="x-icon" viewBox="0 0 16 16">
      <path d="M2.146 2.854a.5.5 0 1 1 .708-.708L8 7.293l5.146-5.147a.5.5 0 0 1 .708.708L8.707 8l5.147 5.146a.5.5 0 0 1-.708.708L8 8.707l-5.146 5.147a.5.5 0 0 1-.708-.708L7.293 8 2.146 2.854Z"/>
  </symbol>

  <symbol id="check-icon" viewBox="0 0 16 12">
    <path d="M5.79923 9.15L14.2742 0.675C14.4742 0.475 14.7117 0.375 14.9867 0.375C15.2617 0.375 15.4992 0.475 15.6992 0.675C15.8992 0.875 15.9992 1.1125 15.9992 1.3875C15.9992 1.6625 15.8992 1.9 15.6992 2.1L6.49923 11.3C6.29923 11.5 6.0659 11.6 5.79923 11.6C5.53256 11.6 5.29923 11.5 5.09923 11.3L0.79923 7C0.59923 6.8 0.503397 6.5625 0.51173 6.2875C0.520064 6.0125 0.62423 5.775 0.82423 5.575C1.02423 5.375 1.26173 5.275 1.53673 5.275C1.81173 5.275 2.04923 5.375 2.24923 5.575L5.79923 9.15Z" fill="white"/>
  </symbol>

  <symbol id="square-icon" viewBox="0 0 24 24">
    <rect x="4" y="4" width="16" height="16" rx="3" stroke="#2A3647" stroke-width="2"/>
  </symbol>

  <symbol id="checked-icon" viewBox="0 0 24 24">
    <path d="M20 11V17C20 18.6569 18.6569 20 17 20H7C5.34315 20 4 18.6569 4 17V7C4 5.34315 5.34315 4 7 4H15" stroke="#fff" stroke-width="2" stroke-linecap="round"/>
    <path d="M8 12L12 16L20 4.5" stroke="#fff" stroke-width="2" stroke-linecap="round" stroke-linejoin="round"/>
  </symbol>

  <symbol id="person-icon" viewBox="0 0 16 16">
  <path d="M6 8a3 3 0 1 0 0-6 3 3 0 0 0 0 6zm2-3a2 2 0 1 1-4 0 2 2 0 0 1 4 0zm4 8c0 1-1 1-1 1H1s-1 0-1-1 1-4 6-4 6 3 6 4zm-1-.004c-.001-.246-.154-.986-.832-1.664C9.516 10.68 8.289 10 6 10c-2.29 0-3.516.68-4.168 1.332-.678.678-.83 1.418-.832 1.664h10z"/>
  <path fill-rule="evenodd" d="M13.5 5a.5.5 0 0 1 .5.5V7h1.5a.5.5 0 0 1 0 1H14v1.5a.5.5 0 0 1-1 0V8h-1.5a.5.5 0 0 1 0-1H13V5.5a.5.5 0 0 1 .5-.5z"/>
  </symbol>

  <symbol id="checkbox-checked" viewBox="0 0 24 24" fill="none">
    <path d="M20 11V17C20 18.6569 18.6569 20 17 20H7C5.34315 20 4 18.6569 4 17V7C4 5.34315 5.34315 4 7 4H15" stroke="#2A3647" stroke-width="2" stroke-linecap="round"/>
    <path d="M8 12L12 16L20 4.5" stroke="#2A3647" stroke-width="2" stroke-linecap="round" stroke-linejoin="round"/>
  </symbol>

    <symbol id="checkbox-unchecked" viewBox="0 0 24 24" fill="none">
    <rect x="4" y="4" width="16" height="16" rx="3" stroke="#2A3647" stroke-width="2"/>     
  </symbol>
</svg>

